<svg xmlns="http://www.w3.org/2000/svg" viewBox="0 0 512 512" role="img" aria-label="Daily Desk logo">
  <defs>
    <linearGradient id="bg" x1="96" y1="64" x2="416" y2="448" gradientUnits="userSpaceOnUse">
      <stop stop-color="#0F766E"/>
      <stop offset="1" stop-color="#3949AB"/>
    </linearGradient>
    <linearGradient id="page" x1="150" y1="128" x2="362" y2="396" gradientUnits="userSpaceOnUse">
      <stop stop-color="#FFFFFF"/>
      <stop offset="1" stop-color="#DDF7F2"/>
    </linearGradient>
  </defs>
  <rect x="48" y="48" width="416" height="416" rx="104" fill="url(#bg)"/>
  <rect x="142" y="116" width="228" height="280" rx="28" fill="url(#page)"/>
  <rect x="170" y="156" width="172" height="18" rx="9" fill="#0F766E" opacity=".95"/>
  <rect x="170" y="206" width="132" height="16" rx="8" fill="#3949AB" opacity=".82"/>
  <rect x="170" y="248" width="164" height="16" rx="8" fill="#3949AB" opacity=".82"/>
  <rect x="170" y="290" width="110" height="16" rx="8" fill="#3949AB" opacity=".82"/>
  <path d="M331 107v72c0 10.5 12.8 15.7 20.2 8.3l26.8-26.8 26.8 26.8c7.4 7.4 20.2 2.2 20.2-8.3v-72c0-13.8-11.2-25-25-25h-44c-13.8 0-25 11.2-25 25Z" fill="#FFF4D8"/>
  <text x="256" y="368" text-anchor="middle" font-family="Arial, Helvetica, sans-serif" font-size="88" font-weight="800" fill="#0F766E">DD</text>
</svg>
